<mxfile host="app.diagrams.net" modified="2023-12-12T14:54:20.511Z" agent="Mozilla/5.0 (Windows NT 10.0; Win64; x64) AppleWebKit/537.36 (KHTML, like Gecko) Chrome/118.0.0.0 Safari/537.36 OPR/104.0.0.0" etag="690jshR4KIhfG6EC3NG4" version="22.1.7" type="device">
  <diagram id="C5RBs43oDa-KdzZeNtuy" name="Page-1">
    <mxGraphModel dx="1639" dy="-268" grid="1" gridSize="10" guides="1" tooltips="1" connect="1" arrows="1" fold="1" page="1" pageScale="1" pageWidth="827" pageHeight="1169" math="0" shadow="0">
      <root>
        <mxCell id="WIyWlLk6GJQsqaUBKTNV-0" />
        <mxCell id="WIyWlLk6GJQsqaUBKTNV-1" parent="WIyWlLk6GJQsqaUBKTNV-0" />
        <UserObject label="" tags="Соединительная_линия" id="h8bX4TpYPx4jOijM28Mo-287">
          <mxCell parent="WIyWlLk6GJQsqaUBKTNV-1" vertex="1" visible="0">
            <mxGeometry x="3460" y="480" as="geometry" />
          </mxCell>
        </UserObject>
        <mxCell id="h8bX4TpYPx4jOijM28Mo-312" value="А" style="ellipse;whiteSpace=wrap;html=1;" parent="WIyWlLk6GJQsqaUBKTNV-1" vertex="1">
          <mxGeometry x="350" y="1588.4" width="40" height="40" as="geometry" />
        </mxCell>
        <UserObject label="" tags="Соединительная_линия" id="5JgCZceG1wtr7dIVo2c--163">
          <mxCell vertex="1" visible="0" parent="WIyWlLk6GJQsqaUBKTNV-1">
            <mxGeometry x="5180" y="1710" as="geometry" />
          </mxCell>
        </UserObject>
        <UserObject label="" tags="Соединительная_линия" id="5JgCZceG1wtr7dIVo2c--281">
          <mxCell vertex="1" visible="0" parent="WIyWlLk6GJQsqaUBKTNV-1">
            <mxGeometry x="6570" y="2910" as="geometry" />
          </mxCell>
        </UserObject>
        <UserObject label="" tags="Фон" id="5JgCZceG1wtr7dIVo2c--305">
          <mxCell style="vsdxID=314;fillColor=#FFFFFF;gradientColor=none;shape=stencil(UzV2Ls5ILEhVNTIoLinKz04tz0wpyVA1dlE1MsrMy0gtyiwBslSNXVWNndPyi1LTi/JL81Ig/IJEkEoQKze/DGRCBUSfoYEBSI+RQSUq3w2iOCczD49iPErJVIjXektLPRMzfMqBDIQ/IUGELIceJkAhSHgauwIA);strokeColor=#000000;strokeWidth=4;spacingTop=-2;spacingBottom=-2;spacingLeft=-2;spacingRight=-2;points=[];labelBackgroundColor=#ffffff;rounded=0;html=1;whiteSpace=wrap;" vertex="1" parent="WIyWlLk6GJQsqaUBKTNV-1">
            <mxGeometry x="2563.9999999999995" y="4026.4000000000005" width="740" height="220" as="geometry" />
          </mxCell>
        </UserObject>
        <UserObject label="" tags="Фон" id="5JgCZceG1wtr7dIVo2c--306">
          <mxCell style="vsdxID=315;fillColor=#FFFFFF;gradientColor=none;shape=stencil(fY9LDoAgDERP0z3SIyjeg0QUooJB/N1eSGMkJrib6bxpWsB61XJRwNkavBvVYbqgARvg3FitvAlRAQrAundeDd5ttiO/yEQmNbs9bTipx1KDsyt3LYGTsUWwYj/oExbgKN5r6JE8+14eR/Q1ihs=);strokeColor=#000000;strokeWidth=4;spacingTop=-2;spacingBottom=-2;spacingLeft=-2;spacingRight=-2;points=[];labelBackgroundColor=#ffffff;rounded=0;html=1;whiteSpace=wrap;" vertex="1" parent="WIyWlLk6GJQsqaUBKTNV-1">
            <mxGeometry x="2824" y="4086.4000000000005" width="480" height="100" as="geometry" />
          </mxCell>
        </UserObject>
        <UserObject label="" tags="Фон" id="5JgCZceG1wtr7dIVo2c--307">
          <mxCell style="vsdxID=316;edgeStyle=none;startArrow=none;endArrow=none;startSize=3;endSize=3;strokeWidth=4;strokeColor=#000000;spacingTop=-2;spacingBottom=-2;spacingLeft=-2;spacingRight=-2;verticalAlign=middle;html=1;labelBackgroundColor=#ffffff;rounded=0;" edge="1" parent="WIyWlLk6GJQsqaUBKTNV-1">
            <mxGeometry relative="1" as="geometry">
              <Array as="points" />
              <mxPoint x="2824" y="4186.400000000001" as="sourcePoint" />
              <mxPoint x="2824" y="4246.400000000001" as="targetPoint" />
            </mxGeometry>
          </mxCell>
        </UserObject>
        <UserObject label="" tags="Фон" id="5JgCZceG1wtr7dIVo2c--308">
          <mxCell style="vsdxID=317;edgeStyle=none;startArrow=none;endArrow=none;startSize=3;endSize=3;strokeWidth=4;strokeColor=#000000;spacingTop=-2;spacingBottom=-2;spacingLeft=-2;spacingRight=-2;verticalAlign=middle;html=1;labelBackgroundColor=#ffffff;rounded=0;" edge="1" parent="WIyWlLk6GJQsqaUBKTNV-1">
            <mxGeometry relative="1" as="geometry">
              <Array as="points" />
              <mxPoint x="3104" y="4086.4000000000005" as="sourcePoint" />
              <mxPoint x="3104" y="4246.400000000001" as="targetPoint" />
            </mxGeometry>
          </mxCell>
        </UserObject>
        <UserObject label="" tags="Фон" id="5JgCZceG1wtr7dIVo2c--309">
          <mxCell style="vsdxID=318;edgeStyle=none;startArrow=none;endArrow=none;startSize=3;endSize=3;strokeColor=#000000;spacingTop=-2;spacingBottom=-2;spacingLeft=-2;spacingRight=-2;verticalAlign=middle;html=1;labelBackgroundColor=#ffffff;rounded=0;" edge="1" parent="WIyWlLk6GJQsqaUBKTNV-1">
            <mxGeometry relative="1" as="geometry">
              <mxPoint as="offset" />
              <Array as="points" />
              <mxPoint x="2563.9999999999995" y="4046.4000000000005" as="sourcePoint" />
              <mxPoint x="2824" y="4046.4000000000005" as="targetPoint" />
            </mxGeometry>
          </mxCell>
        </UserObject>
        <UserObject label="" tags="Фон" id="5JgCZceG1wtr7dIVo2c--310">
          <mxCell style="vsdxID=319;edgeStyle=none;startArrow=none;endArrow=none;startSize=3;endSize=3;strokeColor=#000000;spacingTop=-2;spacingBottom=-2;spacingLeft=-2;spacingRight=-2;verticalAlign=middle;html=1;labelBackgroundColor=#ffffff;rounded=0;" edge="1" parent="WIyWlLk6GJQsqaUBKTNV-1">
            <mxGeometry relative="1" as="geometry">
              <mxPoint as="offset" />
              <Array as="points" />
              <mxPoint x="2563.9999999999995" y="4066.4000000000005" as="sourcePoint" />
              <mxPoint x="2824" y="4066.4000000000005" as="targetPoint" />
            </mxGeometry>
          </mxCell>
        </UserObject>
        <UserObject label="" tags="Фон" id="5JgCZceG1wtr7dIVo2c--311">
          <mxCell style="vsdxID=320;edgeStyle=none;startArrow=none;endArrow=none;startSize=3;endSize=3;strokeColor=#000000;spacingTop=-2;spacingBottom=-2;spacingLeft=-2;spacingRight=-2;verticalAlign=middle;html=1;labelBackgroundColor=#ffffff;rounded=0;" edge="1" parent="WIyWlLk6GJQsqaUBKTNV-1">
            <mxGeometry relative="1" as="geometry">
              <mxPoint as="offset" />
              <Array as="points" />
              <mxPoint x="2563.9999999999995" y="4086.4000000000005" as="sourcePoint" />
              <mxPoint x="2824" y="4086.4000000000005" as="targetPoint" />
            </mxGeometry>
          </mxCell>
        </UserObject>
        <UserObject label="" tags="Фон" id="5JgCZceG1wtr7dIVo2c--312">
          <mxCell style="vsdxID=321;edgeStyle=none;startArrow=none;endArrow=none;startSize=3;endSize=3;strokeWidth=4;strokeColor=#000000;spacingTop=-2;spacingBottom=-2;spacingLeft=-2;spacingRight=-2;verticalAlign=middle;html=1;labelBackgroundColor=#ffffff;rounded=0;" edge="1" parent="WIyWlLk6GJQsqaUBKTNV-1">
            <mxGeometry relative="1" as="geometry">
              <mxPoint as="offset" />
              <Array as="points" />
              <mxPoint x="2563.9999999999995" y="4106.400000000001" as="sourcePoint" />
              <mxPoint x="2824" y="4106.400000000001" as="targetPoint" />
            </mxGeometry>
          </mxCell>
        </UserObject>
        <UserObject label="" tags="Фон" id="5JgCZceG1wtr7dIVo2c--313">
          <mxCell style="vsdxID=322;edgeStyle=none;startArrow=none;endArrow=none;startSize=3;endSize=3;strokeColor=#000000;spacingTop=-2;spacingBottom=-2;spacingLeft=-2;spacingRight=-2;verticalAlign=middle;html=1;labelBackgroundColor=#ffffff;rounded=0;" edge="1" parent="WIyWlLk6GJQsqaUBKTNV-1">
            <mxGeometry relative="1" as="geometry">
              <mxPoint as="offset" />
              <Array as="points" />
              <mxPoint x="2563.9999999999995" y="4146.400000000001" as="sourcePoint" />
              <mxPoint x="2824" y="4146.400000000001" as="targetPoint" />
            </mxGeometry>
          </mxCell>
        </UserObject>
        <UserObject label="" tags="Фон" id="5JgCZceG1wtr7dIVo2c--314">
          <mxCell style="vsdxID=323;edgeStyle=none;startArrow=none;endArrow=none;startSize=3;endSize=3;strokeColor=#000000;spacingTop=-2;spacingBottom=-2;spacingLeft=-2;spacingRight=-2;verticalAlign=middle;html=1;labelBackgroundColor=#ffffff;rounded=0;" edge="1" parent="WIyWlLk6GJQsqaUBKTNV-1">
            <mxGeometry relative="1" as="geometry">
              <mxPoint as="offset" />
              <Array as="points" />
              <mxPoint x="2563.9999999999995" y="4186.400000000001" as="sourcePoint" />
              <mxPoint x="2824" y="4186.400000000001" as="targetPoint" />
            </mxGeometry>
          </mxCell>
        </UserObject>
        <UserObject label="" tags="Фон" id="5JgCZceG1wtr7dIVo2c--315">
          <mxCell style="vsdxID=324;edgeStyle=none;startArrow=none;endArrow=none;startSize=3;endSize=3;strokeWidth=4;strokeColor=#000000;spacingTop=-2;spacingBottom=-2;spacingLeft=-2;spacingRight=-2;verticalAlign=middle;html=1;labelBackgroundColor=#ffffff;rounded=0;" edge="1" parent="WIyWlLk6GJQsqaUBKTNV-1">
            <mxGeometry relative="1" as="geometry">
              <mxPoint as="offset" />
              <Array as="points" />
              <mxPoint x="2563.9999999999995" y="4126.400000000001" as="sourcePoint" />
              <mxPoint x="2824" y="4126.400000000001" as="targetPoint" />
            </mxGeometry>
          </mxCell>
        </UserObject>
        <UserObject label="" tags="Фон" id="5JgCZceG1wtr7dIVo2c--316">
          <mxCell style="vsdxID=325;edgeStyle=none;startArrow=none;endArrow=none;startSize=3;endSize=3;strokeColor=#000000;spacingTop=-2;spacingBottom=-2;spacingLeft=-2;spacingRight=-2;verticalAlign=middle;html=1;labelBackgroundColor=#ffffff;rounded=0;" edge="1" parent="WIyWlLk6GJQsqaUBKTNV-1">
            <mxGeometry relative="1" as="geometry">
              <mxPoint as="offset" />
              <Array as="points" />
              <mxPoint x="2563.9999999999995" y="4166.400000000001" as="sourcePoint" />
              <mxPoint x="2824" y="4166.400000000001" as="targetPoint" />
            </mxGeometry>
          </mxCell>
        </UserObject>
        <UserObject label="" tags="Фон" id="5JgCZceG1wtr7dIVo2c--317">
          <mxCell style="vsdxID=326;edgeStyle=none;startArrow=none;endArrow=none;startSize=3;endSize=3;strokeColor=#000000;spacingTop=-2;spacingBottom=-2;spacingLeft=-2;spacingRight=-2;verticalAlign=middle;html=1;labelBackgroundColor=#ffffff;rounded=0;" edge="1" parent="WIyWlLk6GJQsqaUBKTNV-1">
            <mxGeometry relative="1" as="geometry">
              <mxPoint as="offset" />
              <Array as="points" />
              <mxPoint x="2563.9999999999995" y="4206.400000000001" as="sourcePoint" />
              <mxPoint x="2824" y="4206.400000000001" as="targetPoint" />
            </mxGeometry>
          </mxCell>
        </UserObject>
        <UserObject label="" tags="Фон" id="5JgCZceG1wtr7dIVo2c--318">
          <mxCell style="vsdxID=327;edgeStyle=none;startArrow=none;endArrow=none;startSize=3;endSize=3;strokeColor=#000000;spacingTop=-2;spacingBottom=-2;spacingLeft=-2;spacingRight=-2;verticalAlign=middle;html=1;labelBackgroundColor=#ffffff;rounded=0;" edge="1" parent="WIyWlLk6GJQsqaUBKTNV-1">
            <mxGeometry relative="1" as="geometry">
              <mxPoint as="offset" />
              <Array as="points" />
              <mxPoint x="2563.9999999999995" y="4226.400000000001" as="sourcePoint" />
              <mxPoint x="2824" y="4226.400000000001" as="targetPoint" />
            </mxGeometry>
          </mxCell>
        </UserObject>
        <UserObject label="" tags="Фон" id="5JgCZceG1wtr7dIVo2c--319">
          <mxCell style="vsdxID=328;edgeStyle=none;startArrow=none;endArrow=none;startSize=3;endSize=3;strokeWidth=4;strokeColor=#000000;spacingTop=-2;spacingBottom=-2;spacingLeft=-2;spacingRight=-2;verticalAlign=middle;html=1;labelBackgroundColor=#ffffff;rounded=0;" edge="1" parent="WIyWlLk6GJQsqaUBKTNV-1">
            <mxGeometry relative="1" as="geometry">
              <Array as="points" />
              <mxPoint x="2591.9999999999995" y="4026.4000000000005" as="sourcePoint" />
              <mxPoint x="2591.9999999999995" y="4126.400000000001" as="targetPoint" />
            </mxGeometry>
          </mxCell>
        </UserObject>
        <UserObject label="" tags="Фон" id="5JgCZceG1wtr7dIVo2c--320">
          <mxCell style="vsdxID=329;edgeStyle=none;startArrow=none;endArrow=none;startSize=3;endSize=3;strokeWidth=4;strokeColor=#000000;spacingTop=-2;spacingBottom=-2;spacingLeft=-2;spacingRight=-2;verticalAlign=middle;html=1;labelBackgroundColor=#ffffff;rounded=0;" edge="1" parent="WIyWlLk6GJQsqaUBKTNV-1">
            <mxGeometry relative="1" as="geometry">
              <Array as="points" />
              <mxPoint x="2631.9999999999995" y="4026.4000000000005" as="sourcePoint" />
              <mxPoint x="2631.9999999999995" y="4126.400000000001" as="targetPoint" />
            </mxGeometry>
          </mxCell>
        </UserObject>
        <UserObject label="" tags="Фон" id="5JgCZceG1wtr7dIVo2c--321">
          <mxCell style="vsdxID=330;edgeStyle=none;startArrow=none;endArrow=none;startSize=3;endSize=3;strokeWidth=4;strokeColor=#000000;spacingTop=-2;spacingBottom=-2;spacingLeft=-2;spacingRight=-2;verticalAlign=middle;html=1;labelBackgroundColor=#ffffff;rounded=0;" edge="1" parent="WIyWlLk6GJQsqaUBKTNV-1">
            <mxGeometry relative="1" as="geometry">
              <Array as="points" />
              <mxPoint x="2723.9999999999995" y="4026.4000000000005" as="sourcePoint" />
              <mxPoint x="2723.9999999999995" y="4126.400000000001" as="targetPoint" />
            </mxGeometry>
          </mxCell>
        </UserObject>
        <UserObject label="" tags="Фон" id="5JgCZceG1wtr7dIVo2c--322">
          <mxCell style="vsdxID=331;edgeStyle=none;startArrow=none;endArrow=none;startSize=3;endSize=3;strokeWidth=4;strokeColor=#000000;spacingTop=-2;spacingBottom=-2;spacingLeft=-2;spacingRight=-2;verticalAlign=middle;html=1;labelBackgroundColor=#ffffff;rounded=0;" edge="1" parent="WIyWlLk6GJQsqaUBKTNV-1">
            <mxGeometry relative="1" as="geometry">
              <Array as="points" />
              <mxPoint x="2784" y="4026.4000000000005" as="sourcePoint" />
              <mxPoint x="2784" y="4126.400000000001" as="targetPoint" />
            </mxGeometry>
          </mxCell>
        </UserObject>
        <UserObject label="" tags="Фон" id="5JgCZceG1wtr7dIVo2c--323">
          <mxCell style="vsdxID=332;edgeStyle=none;startArrow=none;endArrow=none;startSize=3;endSize=3;strokeWidth=4;strokeColor=#000000;spacingTop=-2;spacingBottom=-2;spacingLeft=-2;spacingRight=-2;verticalAlign=middle;html=1;labelBackgroundColor=#ffffff;rounded=0;" edge="1" parent="WIyWlLk6GJQsqaUBKTNV-1">
            <mxGeometry relative="1" as="geometry">
              <Array as="points" />
              <mxPoint x="2631.9999999999995" y="4126.400000000001" as="sourcePoint" />
              <mxPoint x="2631.9999999999995" y="4246.400000000001" as="targetPoint" />
            </mxGeometry>
          </mxCell>
        </UserObject>
        <UserObject label="" tags="Фон" id="5JgCZceG1wtr7dIVo2c--324">
          <mxCell style="vsdxID=333;edgeStyle=none;startArrow=none;endArrow=none;startSize=3;endSize=3;strokeWidth=4;strokeColor=#000000;spacingTop=-2;spacingBottom=-2;spacingLeft=-2;spacingRight=-2;verticalAlign=middle;html=1;labelBackgroundColor=#ffffff;rounded=0;" edge="1" parent="WIyWlLk6GJQsqaUBKTNV-1">
            <mxGeometry relative="1" as="geometry">
              <Array as="points" />
              <mxPoint x="2723.9999999999995" y="4126.400000000001" as="sourcePoint" />
              <mxPoint x="2723.9999999999995" y="4246.400000000001" as="targetPoint" />
            </mxGeometry>
          </mxCell>
        </UserObject>
        <UserObject label="" tags="Фон" id="5JgCZceG1wtr7dIVo2c--325">
          <mxCell style="vsdxID=334;edgeStyle=none;startArrow=none;endArrow=none;startSize=3;endSize=3;strokeWidth=4;strokeColor=#000000;spacingTop=-2;spacingBottom=-2;spacingLeft=-2;spacingRight=-2;verticalAlign=middle;html=1;labelBackgroundColor=#ffffff;rounded=0;" edge="1" parent="WIyWlLk6GJQsqaUBKTNV-1">
            <mxGeometry relative="1" as="geometry">
              <Array as="points" />
              <mxPoint x="2784" y="4126.400000000001" as="sourcePoint" />
              <mxPoint x="2784" y="4246.400000000001" as="targetPoint" />
            </mxGeometry>
          </mxCell>
        </UserObject>
        <UserObject label="" tags="Фон" id="5JgCZceG1wtr7dIVo2c--326">
          <mxCell style="vsdxID=335;edgeStyle=none;startArrow=none;endArrow=none;startSize=3;endSize=3;strokeWidth=4;strokeColor=#000000;spacingTop=-2;spacingBottom=-2;spacingLeft=-2;spacingRight=-2;verticalAlign=middle;html=1;labelBackgroundColor=#ffffff;rounded=0;" edge="1" parent="WIyWlLk6GJQsqaUBKTNV-1">
            <mxGeometry relative="1" as="geometry">
              <mxPoint as="offset" />
              <Array as="points" />
              <mxPoint x="3104" y="4106.400000000001" as="sourcePoint" />
              <mxPoint x="3304" y="4106.400000000001" as="targetPoint" />
            </mxGeometry>
          </mxCell>
        </UserObject>
        <UserObject label="" tags="Фон" id="5JgCZceG1wtr7dIVo2c--327">
          <mxCell style="vsdxID=336;edgeStyle=none;startArrow=none;endArrow=none;startSize=3;endSize=3;strokeWidth=4;strokeColor=#000000;spacingTop=-2;spacingBottom=-2;spacingLeft=-2;spacingRight=-2;verticalAlign=middle;html=1;labelBackgroundColor=#ffffff;rounded=0;" edge="1" parent="WIyWlLk6GJQsqaUBKTNV-1">
            <mxGeometry relative="1" as="geometry">
              <mxPoint as="offset" />
              <Array as="points" />
              <mxPoint x="3104" y="4166.400000000001" as="sourcePoint" />
              <mxPoint x="3304" y="4166.400000000001" as="targetPoint" />
            </mxGeometry>
          </mxCell>
        </UserObject>
        <UserObject label="" tags="Фон" id="5JgCZceG1wtr7dIVo2c--328">
          <mxCell style="vsdxID=337;fillColor=#FFFFFF;gradientColor=none;shape=stencil(fY9LDoAgDERP0z3SIyjeg0QUooJB/N1eSGMkJrib6bxpWsB61XJRwNkavBvVYbqgARvg3FitvAlRAQrAundeDd5ttiO/yEQmNbs9bTipx1KDsyt3LYGTsUWwYj/oExbgKN5r6JE8+14eR/Q1ihs=);strokeColor=#000000;strokeWidth=4;spacingTop=-2;spacingBottom=-2;spacingLeft=-2;spacingRight=-2;points=[];labelBackgroundColor=#ffffff;rounded=0;html=1;whiteSpace=wrap;" vertex="1" parent="WIyWlLk6GJQsqaUBKTNV-1">
            <mxGeometry x="2824" y="4026.4000000000005" width="480" height="60" as="geometry" />
          </mxCell>
        </UserObject>
        <UserObject label="&lt;div style=&quot;font-size: 1px&quot;&gt;&lt;font style=&quot;font-size:33.87px;font-family:Arial;color:#000000;direction:ltr;letter-spacing:0px;line-height:120%;opacity:1&quot;&gt;&lt;i&gt;ГУИР.400201&lt;/i&gt;&lt;/font&gt;&lt;font style=&quot;font-size:33.87px;font-family:Arial;color:#000000;direction:ltr;letter-spacing:0px;line-height:120%;opacity:1&quot;&gt;&lt;i&gt;.303&lt;/i&gt;&lt;/font&gt;&lt;font style=&quot;font-size:33.87px;font-family:Arial;color:#000000;direction:ltr;letter-spacing:0px;line-height:120%;opacity:1&quot;&gt;&lt;i&gt;&lt;br&gt;&lt;/i&gt;&lt;/font&gt;&lt;/div&gt;" tags="Фон" id="5JgCZceG1wtr7dIVo2c--329">
          <mxCell style="verticalAlign=middle;align=center;overflow=width;vsdxID=338;fillColor=none;gradientColor=none;shape=stencil(nZBLDoAgDERP0z3SIyjew0SURgSD+Lu9kMZoXLhwN9O+tukAlrNpJg1SzDH4QW/URgNYgZTkjA4UkwJUgGXng+6DX1zLfmoymdXo17xh5zmRJ6Q42BWCfc2oJfdAr+Yv+AP9Cb7OJ3H/2JG1HNGz/84klThPVCc=);strokeColor=none;spacingTop=-2;spacingBottom=-2;spacingLeft=-2;spacingRight=-2;points=[];labelBackgroundColor=none;rounded=0;html=1;whiteSpace=wrap;" vertex="1" parent="WIyWlLk6GJQsqaUBKTNV-1">
            <mxGeometry x="2824" y="4026.4000000000005" width="480" height="60" as="geometry" />
          </mxCell>
        </UserObject>
        <UserObject label="&lt;div style=&quot;font-size: 1px&quot;&gt;&lt;font style=&quot;font-size:12.7px;font-family:Arial;color:#000000;direction:ltr;letter-spacing:0px;line-height:120%;opacity:1&quot;&gt;&lt;i&gt;Лит.&lt;br/&gt;&lt;/i&gt;&lt;/font&gt;&lt;/div&gt;" tags="Фон" id="5JgCZceG1wtr7dIVo2c--330">
          <mxCell style="verticalAlign=middle;align=center;overflow=width;vsdxID=339;fillColor=none;gradientColor=none;shape=stencil(nZBLDoAgDERP0z3SIyjew0SURgSD+Lu9kMZoXLhwN9O+tukAlrNpJg1SzDH4QW/URgNYgZTkjA4UkwJUgGXng+6DX1zLfmoymdXo17xh5zmRJ6Q42BWCfc2oJfdAr+Yv+AP9Cb7OJ3H/2JG1HNGz/84klThPVCc=);strokeColor=none;spacingTop=-2;spacingBottom=-2;spacingLeft=-2;spacingRight=-2;points=[];labelBackgroundColor=none;rounded=0;html=1;whiteSpace=wrap;" vertex="1" parent="WIyWlLk6GJQsqaUBKTNV-1">
            <mxGeometry x="3104" y="4086.4000000000005" width="60" height="20" as="geometry" />
          </mxCell>
        </UserObject>
        <UserObject label="&lt;div style=&quot;font-size: 1px&quot;&gt;&lt;font style=&quot;font-size:12.7px;font-family:Arial;color:#000000;direction:ltr;letter-spacing:0px;line-height:120%;opacity:1&quot;&gt;&lt;i&gt;Масса&lt;br/&gt;&lt;/i&gt;&lt;/font&gt;&lt;/div&gt;" tags="Фон" id="5JgCZceG1wtr7dIVo2c--331">
          <mxCell style="verticalAlign=middle;align=center;overflow=width;vsdxID=340;fillColor=none;gradientColor=none;shape=stencil(nZBLDoAgDERP0z3SIyjew0SURgSD+Lu9kMZoXLhwN9O+tukAlrNpJg1SzDH4QW/URgNYgZTkjA4UkwJUgGXng+6DX1zLfmoymdXo17xh5zmRJ6Q42BWCfc2oJfdAr+Yv+AP9Cb7OJ3H/2JG1HNGz/84klThPVCc=);strokeColor=none;spacingTop=-2;spacingBottom=-2;spacingLeft=-2;spacingRight=-2;points=[];labelBackgroundColor=none;rounded=0;html=1;whiteSpace=wrap;" vertex="1" parent="WIyWlLk6GJQsqaUBKTNV-1">
            <mxGeometry x="3164" y="4086.4000000000005" width="60" height="20" as="geometry" />
          </mxCell>
        </UserObject>
        <UserObject label="&lt;div style=&quot;font-size: 1px&quot;&gt;&lt;font style=&quot;font-size:12.7px;font-family:Arial;color:#000000;direction:ltr;letter-spacing:0px;line-height:120%;opacity:1&quot;&gt;&lt;i&gt;Масштаб&lt;br/&gt;&lt;/i&gt;&lt;/font&gt;&lt;/div&gt;" tags="Фон" id="5JgCZceG1wtr7dIVo2c--332">
          <mxCell style="verticalAlign=middle;align=center;overflow=width;vsdxID=341;fillColor=none;gradientColor=none;shape=stencil(nZBLDoAgDERP0z3SIyjew0SURgSD+Lu9kMZoXLhwN9O+tukAlrNpJg1SzDH4QW/URgNYgZTkjA4UkwJUgGXng+6DX1zLfmoymdXo17xh5zmRJ6Q42BWCfc2oJfdAr+Yv+AP9Cb7OJ3H/2JG1HNGz/84klThPVCc=);strokeColor=none;spacingTop=-2;spacingBottom=-2;spacingLeft=-2;spacingRight=-2;points=[];labelBackgroundColor=none;rounded=0;html=1;whiteSpace=wrap;" vertex="1" parent="WIyWlLk6GJQsqaUBKTNV-1">
            <mxGeometry x="3226" y="4088.4000000000005" width="80" height="16" as="geometry" />
          </mxCell>
        </UserObject>
        <UserObject label="&lt;div style=&quot;font-size: 1px&quot;&gt;&lt;font style=&quot;font-size:12.7px;font-family:Arial;color:#000000;direction:ltr;letter-spacing:0px;line-height:120%;opacity:1&quot;&gt;&lt;i&gt;Лист&lt;/i&gt;&lt;/font&gt;&lt;font style=&quot;font-size:12.7px;font-family:Arial;color:#000000;direction:ltr;letter-spacing:0px;line-height:120%;opacity:1&quot;&gt;&lt;i&gt; &lt;/i&gt;&lt;/font&gt;&lt;font style=&quot;font-size:12.7px;font-family:Arial;color:#000000;direction:ltr;letter-spacing:0px;line-height:120%;opacity:1&quot;&gt;&lt;i&gt;&lt;br/&gt;&lt;/i&gt;&lt;/font&gt;&lt;/div&gt;" tags="Фон" id="5JgCZceG1wtr7dIVo2c--333">
          <mxCell style="verticalAlign=middle;align=center;overflow=width;vsdxID=343;fillColor=none;gradientColor=none;shape=stencil(nZBLDoAgDERP0z3SIyjew0SURgSD+Lu9kMZoXLhwN9O+tukAlrNpJg1SzDH4QW/URgNYgZTkjA4UkwJUgGXng+6DX1zLfmoymdXo17xh5zmRJ6Q42BWCfc2oJfdAr+Yv+AP9Cb7OJ3H/2JG1HNGz/84klThPVCc=);strokeColor=none;spacingTop=-2;spacingBottom=-2;spacingLeft=-2;spacingRight=-2;points=[];labelBackgroundColor=none;rounded=0;html=1;whiteSpace=wrap;" vertex="1" parent="WIyWlLk6GJQsqaUBKTNV-1">
            <mxGeometry x="3104" y="4168.400000000001" width="60" height="18" as="geometry" />
          </mxCell>
        </UserObject>
        <UserObject label="" tags="Фон" id="5JgCZceG1wtr7dIVo2c--334">
          <mxCell style="vsdxID=344;edgeStyle=none;startArrow=none;endArrow=none;startSize=3;endSize=3;strokeColor=#000000;spacingTop=-2;spacingBottom=-2;spacingLeft=-2;spacingRight=-2;verticalAlign=middle;html=1;labelBackgroundColor=#ffffff;rounded=0;" edge="1" parent="WIyWlLk6GJQsqaUBKTNV-1">
            <mxGeometry relative="1" as="geometry">
              <Array as="points" />
              <mxPoint x="3232" y="4086.4000000000005" as="sourcePoint" />
              <mxPoint x="3232" y="4166.400000000001" as="targetPoint" />
            </mxGeometry>
          </mxCell>
        </UserObject>
        <UserObject label="" tags="Фон" id="5JgCZceG1wtr7dIVo2c--335">
          <mxCell style="vsdxID=345;edgeStyle=none;startArrow=none;endArrow=none;startSize=3;endSize=3;strokeColor=#000000;spacingTop=-2;spacingBottom=-2;spacingLeft=-2;spacingRight=-2;verticalAlign=middle;html=1;labelBackgroundColor=#ffffff;rounded=0;" edge="1" parent="WIyWlLk6GJQsqaUBKTNV-1">
            <mxGeometry relative="1" as="geometry">
              <Array as="points" />
              <mxPoint x="3184" y="4166.400000000001" as="sourcePoint" />
              <mxPoint x="3184" y="4186.400000000001" as="targetPoint" />
            </mxGeometry>
          </mxCell>
        </UserObject>
        <UserObject label="" tags="Фон" id="5JgCZceG1wtr7dIVo2c--336">
          <mxCell style="vsdxID=346;edgeStyle=none;startArrow=none;endArrow=none;startSize=3;endSize=3;strokeColor=#000000;spacingTop=-2;spacingBottom=-2;spacingLeft=-2;spacingRight=-2;verticalAlign=middle;html=1;labelBackgroundColor=#ffffff;rounded=0;" edge="1" parent="WIyWlLk6GJQsqaUBKTNV-1">
            <mxGeometry relative="1" as="geometry">
              <Array as="points" />
              <mxPoint x="3164" y="4086.4000000000005" as="sourcePoint" />
              <mxPoint x="3164" y="4166.400000000001" as="targetPoint" />
            </mxGeometry>
          </mxCell>
        </UserObject>
        <UserObject label="&lt;div style=&quot;font-size: 1px&quot;&gt;&lt;font style=&quot;font-size:12.7px;font-family:Arial;color:#000000;direction:ltr;letter-spacing:0px;line-height:120%;opacity:1&quot;&gt;&lt;i&gt;Листов    &lt;/i&gt;&lt;/font&gt;&lt;font style=&quot;font-size:12.7px;font-family:Arial;color:#000000;direction:ltr;letter-spacing:0px;line-height:120%;opacity:1&quot;&gt;&lt;i&gt;1&lt;br/&gt;&lt;/i&gt;&lt;/font&gt;&lt;/div&gt;" tags="Фон" id="5JgCZceG1wtr7dIVo2c--337">
          <mxCell style="verticalAlign=middle;align=center;overflow=width;vsdxID=347;fillColor=none;gradientColor=none;shape=stencil(nZBLDoAgDERP0z3SIyjew0SURgSD+Lu9kMZoXLhwN9O+tukAlrNpJg1SzDH4QW/URgNYgZTkjA4UkwJUgGXng+6DX1zLfmoymdXo17xh5zmRJ6Q42BWCfc2oJfdAr+Yv+AP9Cb7OJ3H/2JG1HNGz/84klThPVCc=);strokeColor=none;spacingTop=-2;spacingBottom=-2;spacingLeft=-2;spacingRight=-2;points=[];labelBackgroundColor=none;rounded=0;html=1;whiteSpace=wrap;" vertex="1" parent="WIyWlLk6GJQsqaUBKTNV-1">
            <mxGeometry x="3186" y="4166.400000000001" width="118" height="20" as="geometry" />
          </mxCell>
        </UserObject>
        <UserObject label="&lt;div style=&quot;font-size: 1px&quot;&gt;&lt;font style=&quot;font-size:22.58px;font-family:Arial;color:#000000;direction:ltr;letter-spacing:0px;line-height:120%;opacity:1&quot;&gt;&lt;i&gt;ЭВМ, гр. 250503&lt;/i&gt;&lt;/font&gt;&lt;/div&gt;" tags="Фон" id="5JgCZceG1wtr7dIVo2c--338">
          <mxCell style="verticalAlign=middle;align=center;overflow=width;vsdxID=348;fillColor=none;gradientColor=none;shape=stencil(nZBLDoAgDERP0z3SIyjew0SURgSD+Lu9kMZoXLhwN9O+tukAlrNpJg1SzDH4QW/URgNYgZTkjA4UkwJUgGXng+6DX1zLfmoymdXo17xh5zmRJ6Q42BWCfc2oJfdAr+Yv+AP9Cb7OJ3H/2JG1HNGz/84klThPVCc=);strokeColor=none;spacingTop=-2;spacingBottom=-2;spacingLeft=-2;spacingRight=-2;points=[[0.64,1,0],[1,1,0]];labelBackgroundColor=none;rounded=0;html=1;whiteSpace=wrap;" vertex="1" parent="WIyWlLk6GJQsqaUBKTNV-1">
            <mxGeometry x="3104" y="4186.400000000001" width="199" height="60" as="geometry" />
          </mxCell>
        </UserObject>
        <UserObject label="&lt;div style=&quot;font-size: 1px&quot;&gt;&lt;font style=&quot;font-size:11.29px;font-family:Arial;color:#000000;direction:ltr;letter-spacing:0px;line-height:120%;opacity:1&quot;&gt;&lt;i&gt;Изм&lt;/i&gt;&lt;/font&gt;&lt;font style=&quot;font-size:11.29px;font-family:Arial;color:#000000;direction:ltr;letter-spacing:0px;line-height:120%;opacity:1&quot;&gt;&lt;i&gt;.&lt;br/&gt;&lt;/i&gt;&lt;/font&gt;&lt;/div&gt;" tags="Фон" id="5JgCZceG1wtr7dIVo2c--339">
          <mxCell style="verticalAlign=middle;align=center;overflow=width;vsdxID=349;fillColor=none;gradientColor=none;shape=stencil(nZBLDoAgDERP0z3SIyjew0SURgSD+Lu9kMZoXLhwN9O+tukAlrNpJg1SzDH4QW/URgNYgZTkjA4UkwJUgGXng+6DX1zLfmoymdXo17xh5zmRJ6Q42BWCfc2oJfdAr+Yv+AP9Cb7OJ3H/2JG1HNGz/84klThPVCc=);strokeColor=none;spacingTop=-2;spacingBottom=-2;spacingLeft=-2;spacingRight=-2;points=[];labelBackgroundColor=none;rounded=0;html=1;whiteSpace=wrap;" vertex="1" parent="WIyWlLk6GJQsqaUBKTNV-1">
            <mxGeometry x="2563.9999999999995" y="4106.400000000001" width="27" height="20" as="geometry" />
          </mxCell>
        </UserObject>
        <UserObject label="&lt;div style=&quot;font-size: 1px&quot;&gt;&lt;font style=&quot;font-size:11.29px;font-family:Arial;color:#000000;direction:ltr;letter-spacing:0px;line-height:120%;opacity:1&quot;&gt;&lt;i&gt;Лист&lt;br/&gt;&lt;/i&gt;&lt;/font&gt;&lt;/div&gt;" tags="Фон" id="5JgCZceG1wtr7dIVo2c--340">
          <mxCell style="verticalAlign=middle;align=center;overflow=width;vsdxID=350;fillColor=none;gradientColor=none;shape=stencil(nZBLDoAgDERP0z3SIyjew0SURgSD+Lu9kMZoXLhwN9O+tukAlrNpJg1SzDH4QW/URgNYgZTkjA4UkwJUgGXng+6DX1zLfmoymdXo17xh5zmRJ6Q42BWCfc2oJfdAr+Yv+AP9Cb7OJ3H/2JG1HNGz/84klThPVCc=);strokeColor=none;spacingTop=-2;spacingBottom=-2;spacingLeft=-2;spacingRight=-2;points=[];labelBackgroundColor=none;rounded=0;html=1;whiteSpace=wrap;" vertex="1" parent="WIyWlLk6GJQsqaUBKTNV-1">
            <mxGeometry x="2591.9999999999995" y="4106.400000000001" width="39" height="20" as="geometry" />
          </mxCell>
        </UserObject>
        <UserObject label="&lt;div style=&quot;font-size: 1px&quot;&gt;&lt;font style=&quot;font-size:11.29px;font-family:Arial;color:#000000;direction:ltr;letter-spacing:0px;line-height:120%;opacity:1&quot;&gt;&lt;i&gt;№ докум.&lt;br/&gt;&lt;/i&gt;&lt;/font&gt;&lt;/div&gt;" tags="Фон" id="5JgCZceG1wtr7dIVo2c--341">
          <mxCell style="verticalAlign=middle;align=center;overflow=width;vsdxID=351;fillColor=none;gradientColor=none;shape=stencil(nZBLDoAgDERP0z3SIyjew0SURgSD+Lu9kMZoXLhwN9O+tukAlrNpJg1SzDH4QW/URgNYgZTkjA4UkwJUgGXng+6DX1zLfmoymdXo17xh5zmRJ6Q42BWCfc2oJfdAr+Yv+AP9Cb7OJ3H/2JG1HNGz/84klThPVCc=);strokeColor=none;strokeWidth=4;spacingTop=-2;spacingBottom=-2;spacingLeft=-2;spacingRight=-2;points=[];labelBackgroundColor=none;rounded=0;html=1;whiteSpace=wrap;" vertex="1" parent="WIyWlLk6GJQsqaUBKTNV-1">
            <mxGeometry x="2631.9999999999995" y="4106.400000000001" width="91" height="20" as="geometry" />
          </mxCell>
        </UserObject>
        <UserObject label="&lt;div style=&quot;font-size: 1px&quot;&gt;&lt;font style=&quot;font-size:11.29px;font-family:Arial;color:#000000;direction:ltr;letter-spacing:0px;line-height:120%;opacity:1&quot;&gt;&lt;i&gt;Подп.&lt;br/&gt;&lt;/i&gt;&lt;/font&gt;&lt;/div&gt;" tags="Фон" id="5JgCZceG1wtr7dIVo2c--342">
          <mxCell style="verticalAlign=middle;align=center;overflow=width;vsdxID=352;fillColor=none;gradientColor=none;shape=stencil(nZBLDoAgDERP0z3SIyjew0SURgSD+Lu9kMZoXLhwN9O+tukAlrNpJg1SzDH4QW/URgNYgZTkjA4UkwJUgGXng+6DX1zLfmoymdXo17xh5zmRJ6Q42BWCfc2oJfdAr+Yv+AP9Cb7OJ3H/2JG1HNGz/84klThPVCc=);strokeColor=none;strokeWidth=4;spacingTop=-2;spacingBottom=-2;spacingLeft=-2;spacingRight=-2;points=[];labelBackgroundColor=none;rounded=0;html=1;whiteSpace=wrap;" vertex="1" parent="WIyWlLk6GJQsqaUBKTNV-1">
            <mxGeometry x="2723.9999999999995" y="4106.400000000001" width="60" height="20" as="geometry" />
          </mxCell>
        </UserObject>
        <UserObject label="&lt;div style=&quot;font-size: 1px&quot;&gt;&lt;font style=&quot;font-size:11.29px;font-family:Arial;color:#000000;direction:ltr;letter-spacing:0px;line-height:120%;opacity:1&quot;&gt;&lt;i&gt;Дата&lt;br/&gt;&lt;/i&gt;&lt;/font&gt;&lt;/div&gt;" tags="Фон" id="5JgCZceG1wtr7dIVo2c--343">
          <mxCell style="verticalAlign=middle;align=center;overflow=width;vsdxID=353;fillColor=none;gradientColor=none;shape=stencil(nZBLDoAgDERP0z3SIyjew0SURgSD+Lu9kMZoXLhwN9O+tukAlrNpJg1SzDH4QW/URgNYgZTkjA4UkwJUgGXng+6DX1zLfmoymdXo17xh5zmRJ6Q42BWCfc2oJfdAr+Yv+AP9Cb7OJ3H/2JG1HNGz/84klThPVCc=);strokeColor=none;strokeWidth=4;spacingTop=-2;spacingBottom=-2;spacingLeft=-2;spacingRight=-2;points=[];labelBackgroundColor=none;rounded=0;html=1;whiteSpace=wrap;" vertex="1" parent="WIyWlLk6GJQsqaUBKTNV-1">
            <mxGeometry x="2783" y="4106.400000000001" width="40" height="19" as="geometry" />
          </mxCell>
        </UserObject>
        <UserObject label="&lt;div style=&quot;font-size: 1px&quot;&gt;&lt;font style=&quot;font-size:11.29px;font-family:Arial;color:#000000;direction:ltr;letter-spacing:0px;line-height:120%;opacity:1&quot;&gt;&lt;i&gt;Разраб.&lt;br/&gt;&lt;/i&gt;&lt;/font&gt;&lt;/div&gt;" tags="Фон" id="5JgCZceG1wtr7dIVo2c--344">
          <mxCell style="verticalAlign=middle;align=center;overflow=width;vsdxID=354;fillColor=none;gradientColor=none;shape=stencil(nZBLDoAgDERP0z3SIyjew0SURgSD+Lu9kMZoXLhwN9O+tukAlrNpJg1SzDH4QW/URgNYgZTkjA4UkwJUgGXng+6DX1zLfmoymdXo17xh5zmRJ6Q42BWCfc2oJfdAr+Yv+AP9Cb7OJ3H/2JG1HNGz/84klThPVCc=);strokeColor=none;spacingTop=-2;spacingBottom=-2;spacingLeft=-2;spacingRight=-2;points=[];labelBackgroundColor=none;rounded=0;html=1;whiteSpace=wrap;" vertex="1" parent="WIyWlLk6GJQsqaUBKTNV-1">
            <mxGeometry x="2553.9999999999995" y="4126.400000000001" width="68" height="20" as="geometry" />
          </mxCell>
        </UserObject>
        <UserObject label="&lt;div style=&quot;font-size: 1px&quot;&gt;&lt;font style=&quot;font-size:11.29px;font-family:Arial;color:#000000;direction:ltr;letter-spacing:0px;line-height:120%;opacity:1&quot;&gt;&lt;i&gt;Пров.&lt;br/&gt;&lt;/i&gt;&lt;/font&gt;&lt;/div&gt;" tags="Фон" id="5JgCZceG1wtr7dIVo2c--345">
          <mxCell style="verticalAlign=middle;align=center;overflow=width;vsdxID=355;fillColor=none;gradientColor=none;shape=stencil(nZBLDoAgDERP0z3SIyjew0SURgSD+Lu9kMZoXLhwN9O+tukAlrNpJg1SzDH4QW/URgNYgZTkjA4UkwJUgGXng+6DX1zLfmoymdXo17xh5zmRJ6Q42BWCfc2oJfdAr+Yv+AP9Cb7OJ3H/2JG1HNGz/84klThPVCc=);strokeColor=none;spacingTop=-2;spacingBottom=-2;spacingLeft=-2;spacingRight=-2;points=[];labelBackgroundColor=none;rounded=0;html=1;whiteSpace=wrap;" vertex="1" parent="WIyWlLk6GJQsqaUBKTNV-1">
            <mxGeometry x="2549.9999999999995" y="4146.400000000001" width="68" height="20" as="geometry" />
          </mxCell>
        </UserObject>
        <UserObject label="&lt;div style=&quot;font-size: 1px&quot;&gt;&lt;p style=&quot;text-align:left;margin-left:0;margin-right:0;margin-top:0px;margin-bottom:0px;text-indent:0;vertical-align:middle;direction:ltr;&quot;&gt;&lt;font style=&quot;font-size:11.29px;font-family:Arial;color:#000000;direction:ltr;letter-spacing:0px;line-height:120%;opacity:1&quot;&gt;&lt;i&gt;Богдан&lt;/i&gt;&lt;/font&gt;&lt;/p&gt;&lt;/div&gt;" tags="Фон" id="5JgCZceG1wtr7dIVo2c--346">
          <mxCell style="verticalAlign=middle;align=left;overflow=width;vsdxID=357;fillColor=none;gradientColor=none;shape=stencil(nZBLDoAgDERP0z3SIyjew0SURgSD+Lu9kMZoXLhwN9O+tukAlrNpJg1SzDH4QW/URgNYgZTkjA4UkwJUgGXng+6DX1zLfmoymdXo17xh5zmRJ6Q42BWCfc2oJfdAr+Yv+AP9Cb7OJ3H/2JG1HNGz/84klThPVCc=);strokeColor=none;spacingTop=-2;spacingBottom=-2;spacingLeft=-2;spacingRight=-2;points=[];labelBackgroundColor=none;rounded=0;html=1;whiteSpace=wrap;" vertex="1" parent="WIyWlLk6GJQsqaUBKTNV-1">
            <mxGeometry x="2634.9999999999995" y="4146.400000000001" width="91" height="20" as="geometry" />
          </mxCell>
        </UserObject>
        <UserObject label="" tags="Фон" id="5JgCZceG1wtr7dIVo2c--347">
          <mxCell style="vsdxID=359;edgeStyle=none;startArrow=none;endArrow=none;startSize=3;endSize=3;strokeWidth=4;spacingTop=-2;spacingBottom=-2;spacingLeft=-2;spacingRight=-2;verticalAlign=middle;html=1;labelBackgroundColor=#ffffff;rounded=0;" edge="1" parent="WIyWlLk6GJQsqaUBKTNV-1">
            <mxGeometry relative="1" as="geometry">
              <mxPoint as="offset" />
              <Array as="points" />
              <mxPoint x="2563.9999999999995" y="3160.3999999999996" as="sourcePoint" />
              <mxPoint x="3302" y="3160.3999999999996" as="targetPoint" />
            </mxGeometry>
          </mxCell>
        </UserObject>
        <UserObject label="" tags="Фон" id="5JgCZceG1wtr7dIVo2c--348">
          <mxCell style="vsdxID=361;edgeStyle=none;startArrow=none;endArrow=none;startSize=3;endSize=3;strokeWidth=4;spacingTop=-2;spacingBottom=-2;spacingLeft=-2;spacingRight=-2;verticalAlign=middle;html=1;labelBackgroundColor=#ffffff;rounded=0;" edge="1" parent="WIyWlLk6GJQsqaUBKTNV-1">
            <mxGeometry relative="1" as="geometry">
              <Array as="points" />
              <mxPoint x="3304" y="4026.4000000000005" as="sourcePoint" />
              <mxPoint x="3304" y="3160.3999999999996" as="targetPoint" />
            </mxGeometry>
          </mxCell>
        </UserObject>
        <UserObject label="" tags="Фон" id="5JgCZceG1wtr7dIVo2c--349">
          <mxCell style="vsdxID=363;edgeStyle=none;startArrow=none;endArrow=none;startSize=3;endSize=3;strokeWidth=4;spacingTop=-2;spacingBottom=-2;spacingLeft=-2;spacingRight=-2;verticalAlign=middle;html=1;labelBackgroundColor=#ffffff;rounded=0;" edge="1" parent="WIyWlLk6GJQsqaUBKTNV-1">
            <mxGeometry relative="1" as="geometry">
              <Array as="points" />
              <mxPoint x="3249" y="3437.4000000000005" as="sourcePoint" />
              <mxPoint x="3304" y="3437.4000000000005" as="targetPoint" />
            </mxGeometry>
          </mxCell>
        </UserObject>
        <UserObject label="&lt;div style=&quot;font-size: 1px&quot;&gt;&lt;font style=&quot;font-size:25.4px;font-family:Arial;color:#000000;direction:ltr;letter-spacing:0px;line-height:120%;opacity:1&quot;&gt;&lt;i&gt;ГУИР.400201&lt;/i&gt;&lt;/font&gt;&lt;font style=&quot;font-size:25.4px;font-family:Arial;color:#000000;direction:ltr;letter-spacing:0px;line-height:120%;opacity:1&quot;&gt;&lt;i&gt;.303&lt;/i&gt;&lt;/font&gt;&lt;font style=&quot;font-size:25.4px;font-family:Arial;color:#000000;direction:ltr;letter-spacing:0px;line-height:120%;opacity:1&quot;&gt;&lt;i&gt;&lt;br&gt;&lt;/i&gt;&lt;/font&gt;&lt;/div&gt;" tags="Фон" id="5JgCZceG1wtr7dIVo2c--350">
          <mxCell style="verticalAlign=middle;align=center;overflow=width;vsdxID=364;rotation=90;fillColor=none;gradientColor=none;shape=stencil(nZBLDoAgDERP0z3SIyjew0SURgSD+Lu9kMZoXLhwN9O+tukAlrNpJg1SzDH4QW/URgNYgZTkjA4UkwJUgGXng+6DX1zLfmoymdXo17xh5zmRJ6Q42BWCfc2oJfdAr+Yv+AP9Cb7OJ3H/2JG1HNGz/84klThPVCc=);strokeColor=none;spacingTop=-2;spacingBottom=-2;spacingLeft=-2;spacingRight=-2;points=[];labelBackgroundColor=none;rounded=0;html=1;whiteSpace=wrap;" vertex="1" parent="WIyWlLk6GJQsqaUBKTNV-1">
            <mxGeometry x="3140" y="3265.4000000000005" width="276" height="68" as="geometry" />
          </mxCell>
        </UserObject>
        <UserObject label="&lt;div style=&quot;&quot;&gt;&lt;p style=&quot;text-align: center; margin: 0px; text-indent: 0px; vertical-align: middle; direction: ltr;&quot;&gt;&lt;font face=&quot;Arial-ItalicMT&quot;&gt;&lt;span style=&quot;font-size: 19.76px;&quot;&gt;&lt;i&gt;Схема алгоритма функции&lt;/i&gt;&lt;/span&gt;&lt;/font&gt;&lt;/p&gt;&lt;p style=&quot;text-align: center; margin: 0px; text-indent: 0px; vertical-align: middle; direction: ltr;&quot;&gt;&lt;font face=&quot;Arial-ItalicMT&quot;&gt;&lt;span style=&quot;font-size: 19.76px;&quot;&gt;&lt;i&gt;checkCollisionWithFood()&lt;/i&gt;&lt;/span&gt;&lt;/font&gt;&lt;/p&gt;&lt;/div&gt;" tags="Фон" id="5JgCZceG1wtr7dIVo2c--351">
          <mxCell style="verticalAlign=middle;align=center;overflow=width;vsdxID=409;fillColor=none;gradientColor=none;shape=stencil(nZBLDoAgDERP0z3SIyjew0SURgSD+Lu9kMZoXLhwN9O+tukAlrNpJg1SzDH4QW/URgNYgZTkjA4UkwJUgGXng+6DX1zLfmoymdXo17xh5zmRJ6Q42BWCfc2oJfdAr+Yv+AP9Cb7OJ3H/2JG1HNGz/84klThPVCc=);strokeColor=none;spacingTop=-2;spacingBottom=-2;spacingLeft=-2;spacingRight=-2;points=[];labelBackgroundColor=none;rounded=0;html=1;whiteSpace=wrap;" vertex="1" parent="WIyWlLk6GJQsqaUBKTNV-1">
            <mxGeometry x="2824" y="4087.4000000000005" width="280" height="98" as="geometry" />
          </mxCell>
        </UserObject>
        <UserObject label="&lt;div style=&quot;font-size: 1px&quot;&gt;&lt;font style=&quot;font-size:14.11px;font-family:Arial;color:#000000;direction:ltr;letter-spacing:0px;line-height:120%;opacity:1&quot;&gt;&lt;i&gt;&lt;br&gt;&lt;/i&gt;&lt;/font&gt;&lt;/div&gt;" tags="Фон" id="5JgCZceG1wtr7dIVo2c--352">
          <mxCell style="verticalAlign=middle;align=center;overflow=width;vsdxID=695;fillColor=none;gradientColor=none;shape=stencil(nZBLDoAgDERP0z3SIyjew0SURgSD+Lu9kMZoXLhwN9O+tukAlrNpJg1SzDH4QW/URgNYgZTkjA4UkwJUgGXng+6DX1zLfmoymdXo17xh5zmRJ6Q42BWCfc2oJfdAr+Yv+AP9Cb7OJ3H/2JG1HNGz/84klThPVCc=);strokeColor=none;spacingTop=-2;spacingBottom=-2;spacingLeft=-2;spacingRight=-2;points=[];labelBackgroundColor=none;rounded=0;html=1;whiteSpace=wrap;" vertex="1" parent="WIyWlLk6GJQsqaUBKTNV-1">
            <mxGeometry x="3225" y="4106.400000000001" width="77" height="61" as="geometry" />
          </mxCell>
        </UserObject>
        <UserObject label="" tags="Фон" id="5JgCZceG1wtr7dIVo2c--353">
          <mxCell style="vsdxID=1512;edgeStyle=none;startArrow=none;endArrow=none;startSize=3;endSize=3;spacingTop=-2;spacingBottom=-2;spacingLeft=-2;spacingRight=-2;verticalAlign=middle;html=1;labelBackgroundColor=#ffffff;rounded=0;" edge="1" parent="WIyWlLk6GJQsqaUBKTNV-1">
            <mxGeometry relative="1" as="geometry">
              <Array as="points" />
              <mxPoint x="3124" y="4108.400000000001" as="sourcePoint" />
              <mxPoint x="3124" y="4164.400000000001" as="targetPoint" />
            </mxGeometry>
          </mxCell>
        </UserObject>
        <UserObject label="" tags="Фон" id="5JgCZceG1wtr7dIVo2c--354">
          <mxCell style="vsdxID=1513;edgeStyle=none;startArrow=none;endArrow=none;startSize=3;endSize=3;spacingTop=-2;spacingBottom=-2;spacingLeft=-2;spacingRight=-2;verticalAlign=middle;html=1;labelBackgroundColor=#ffffff;rounded=0;" edge="1" parent="WIyWlLk6GJQsqaUBKTNV-1">
            <mxGeometry relative="1" as="geometry">
              <Array as="points" />
              <mxPoint x="3144" y="4108.400000000001" as="sourcePoint" />
              <mxPoint x="3144" y="4165.400000000001" as="targetPoint" />
            </mxGeometry>
          </mxCell>
        </UserObject>
        <UserObject label="&lt;div style=&quot;&quot;&gt;&lt;p style=&quot;text-align: left; margin: 0px; text-indent: 0px; vertical-align: middle; direction: ltr;&quot;&gt;&lt;font face=&quot;Arial&quot;&gt;&lt;span style=&quot;font-size: 11.29px;&quot;&gt;&lt;i&gt;Георгиев&lt;/i&gt;&lt;/span&gt;&lt;/font&gt;&lt;/p&gt;&lt;/div&gt;" tags="Фон" id="5JgCZceG1wtr7dIVo2c--355">
          <mxCell style="verticalAlign=middle;align=left;overflow=width;vsdxID=356;fillColor=none;gradientColor=none;shape=stencil(nZBLDoAgDERP0z3SIyjew0SURgSD+Lu9kMZoXLhwN9O+tukAlrNpJg1SzDH4QW/URgNYgZTkjA4UkwJUgGXng+6DX1zLfmoymdXo17xh5zmRJ6Q42BWCfc2oJfdAr+Yv+AP9Cb7OJ3H/2JG1HNGz/84klThPVCc=);strokeColor=none;spacingTop=-2;spacingBottom=-2;spacingLeft=-2;spacingRight=-2;points=[];labelBackgroundColor=none;rounded=0;html=1;whiteSpace=wrap;" vertex="1" parent="WIyWlLk6GJQsqaUBKTNV-1">
            <mxGeometry x="2633.9999999999995" y="4127.400000000001" width="91" height="20" as="geometry" />
          </mxCell>
        </UserObject>
        <UserObject label="" tags="Фон" id="5JgCZceG1wtr7dIVo2c--356">
          <mxCell style="vsdxID=1085;edgeStyle=none;startArrow=none;endArrow=none;startSize=3;endSize=3;spacingTop=-2;spacingBottom=-2;spacingLeft=-2;spacingRight=-2;verticalAlign=middle;html=1;labelBackgroundColor=#ffffff;rounded=0;" edge="1" parent="WIyWlLk6GJQsqaUBKTNV-1">
            <mxGeometry relative="1" as="geometry">
              <mxPoint as="offset" />
              <Array as="points" />
              <mxPoint x="2579.9999999999995" y="4026.4000000000005" as="sourcePoint" />
              <mxPoint x="2599.9999999999995" y="4026.4000000000005" as="targetPoint" />
            </mxGeometry>
          </mxCell>
        </UserObject>
        <UserObject label="&lt;div style=&quot;font-size: 1px&quot;&gt;&lt;font style=&quot;font-size:14.11px;font-family:Arial;color:#000000;direction:ltr;letter-spacing:0px;line-height:120%;opacity:1&quot;&gt;&lt;i&gt;У&lt;br/&gt;&lt;/i&gt;&lt;/font&gt;&lt;/div&gt;" tags="Фон" id="5JgCZceG1wtr7dIVo2c--357">
          <mxCell style="verticalAlign=middle;align=center;overflow=width;vsdxID=3040;fillColor=none;gradientColor=none;shape=stencil(nZBLDoAgDERP0z3SIyjew0SURgSD+Lu9kMZoXLhwN9O+tukAlrNpJg1SzDH4QW/URgNYgZTkjA4UkwJUgGXng+6DX1zLfmoymdXo17xh5zmRJ6Q42BWCfc2oJfdAr+Yv+AP9Cb7OJ3H/2JG1HNGz/84klThPVCc=);strokeColor=none;points=[];labelBackgroundColor=none;rounded=0;html=1;whiteSpace=wrap;" vertex="1" parent="WIyWlLk6GJQsqaUBKTNV-1">
            <mxGeometry x="3104" y="4128.400000000001" width="56" height="16" as="geometry" />
          </mxCell>
        </UserObject>
        <UserObject label="&lt;div style=&quot;font-size: 1px&quot;&gt;&lt;p style=&quot;text-align:right;margin-left:0;margin-right:0;margin-top:0px;margin-bottom:0px;text-indent:0;vertical-align:middle;direction:ltr;&quot;&gt;&lt;font style=&quot;font-size:8.47px;font-family:Arial;color:#000000;direction:ltr;letter-spacing:0px;line-height:120%;opacity:1&quot;&gt;&lt;i&gt;Формат А4&lt;/i&gt;&lt;/font&gt;&lt;font style=&quot;font-size:8.47px;font-family:Arial;color:#000000;direction:ltr;letter-spacing:0px;line-height:120%;opacity:1&quot;&gt;&lt;i&gt;&lt;br/&gt;&lt;/i&gt;&lt;/font&gt;&lt;/p&gt;&lt;/div&gt;" tags="Фон" id="5JgCZceG1wtr7dIVo2c--358">
          <mxCell style="verticalAlign=middle;align=right;overflow=width;vsdxID=3042;fillColor=none;gradientColor=none;shape=stencil(nZBLDoAgDERP0z3SIyjew0SURgSD+Lu9kMZoXLhwN9O+tukAlrNpJg1SzDH4QW/URgNYgZTkjA4UkwJUgGXng+6DX1zLfmoymdXo17xh5zmRJ6Q42BWCfc2oJfdAr+Yv+AP9Cb7OJ3H/2JG1HNGz/84klThPVCc=);strokeColor=none;strokeWidth=4;spacingTop=-1;spacingBottom=-1;spacingLeft=-1;spacingRight=-1;points=[];labelBackgroundColor=none;rounded=0;html=1;whiteSpace=wrap;" vertex="1" parent="WIyWlLk6GJQsqaUBKTNV-1">
            <mxGeometry x="3249" y="4247.400000000001" width="54" height="10" as="geometry" />
          </mxCell>
        </UserObject>
        <UserObject label="" tags="Фон" id="5JgCZceG1wtr7dIVo2c--359">
          <mxCell style="vsdxID=3039;edgeStyle=none;startArrow=none;endArrow=none;startSize=3;endSize=3;strokeWidth=4;spacingTop=-2;spacingBottom=-2;spacingLeft=-2;spacingRight=-2;verticalAlign=middle;html=1;labelBackgroundColor=#ffffff;rounded=0;exitX=0.6381909547738693;exitY=1;exitDx=0;exitDy=0;exitPerimeter=0;entryX=1.0050251256281406;entryY=1;entryDx=0;entryDy=0;entryPerimeter=0;" edge="1" parent="WIyWlLk6GJQsqaUBKTNV-1" source="5JgCZceG1wtr7dIVo2c--338" target="5JgCZceG1wtr7dIVo2c--338">
            <mxGeometry relative="1" as="geometry">
              <mxPoint as="offset" />
              <Array as="points" />
            </mxGeometry>
          </mxCell>
        </UserObject>
        <mxCell id="5JgCZceG1wtr7dIVo2c--360" vertex="1" parent="WIyWlLk6GJQsqaUBKTNV-1">
          <mxGeometry x="2563.9999999999995" y="4031.4000000000005" as="geometry" />
        </mxCell>
        <mxCell id="5JgCZceG1wtr7dIVo2c--361" vertex="1" parent="WIyWlLk6GJQsqaUBKTNV-1">
          <mxGeometry x="2563.9999999999995" y="3160.3999999999996" as="geometry" />
        </mxCell>
        <UserObject label="" tags="Фон" id="5JgCZceG1wtr7dIVo2c--362">
          <mxCell style="vsdxID=358;edgeStyle=none;startArrow=none;endArrow=none;startSize=3;endSize=3;strokeWidth=4;spacingTop=-2;spacingBottom=-2;spacingLeft=-2;spacingRight=-2;verticalAlign=middle;html=1;labelBackgroundColor=#ffffff;rounded=0;" edge="1" parent="WIyWlLk6GJQsqaUBKTNV-1" source="5JgCZceG1wtr7dIVo2c--360" target="5JgCZceG1wtr7dIVo2c--361">
            <mxGeometry relative="1" as="geometry">
              <Array as="points">
                <mxPoint x="2563.9999999999995" y="4031.4000000000005" />
                <mxPoint x="2563.9999999999995" y="3160" />
              </Array>
            </mxGeometry>
          </mxCell>
        </UserObject>
        <mxCell id="5JgCZceG1wtr7dIVo2c--363" vertex="1" parent="WIyWlLk6GJQsqaUBKTNV-1">
          <mxGeometry x="3249" y="3160.3999999999996" as="geometry" />
        </mxCell>
        <mxCell id="5JgCZceG1wtr7dIVo2c--364" vertex="1" parent="WIyWlLk6GJQsqaUBKTNV-1">
          <mxGeometry x="3249" y="3437.4000000000005" as="geometry" />
        </mxCell>
        <UserObject label="" tags="Фон" id="5JgCZceG1wtr7dIVo2c--365">
          <mxCell style="vsdxID=362;edgeStyle=none;startArrow=none;endArrow=none;startSize=3;endSize=3;strokeWidth=4;spacingTop=-2;spacingBottom=-2;spacingLeft=-2;spacingRight=-2;verticalAlign=middle;html=1;labelBackgroundColor=#ffffff;rounded=0;" edge="1" parent="WIyWlLk6GJQsqaUBKTNV-1" source="5JgCZceG1wtr7dIVo2c--363" target="5JgCZceG1wtr7dIVo2c--364">
            <mxGeometry relative="1" as="geometry">
              <Array as="points">
                <mxPoint x="3249" y="3160.3999999999996" />
                <mxPoint x="3248.800000000001" y="3438.2" />
              </Array>
            </mxGeometry>
          </mxCell>
        </UserObject>
        <UserObject label="" tags="Соединительная_линия" id="5JgCZceG1wtr7dIVo2c--366">
          <mxCell vertex="1" visible="0" parent="WIyWlLk6GJQsqaUBKTNV-1">
            <mxGeometry x="5530" y="3620" as="geometry" />
          </mxCell>
        </UserObject>
        <mxCell id="5JgCZceG1wtr7dIVo2c--368" style="edgeStyle=orthogonalEdgeStyle;rounded=0;orthogonalLoop=1;jettySize=auto;html=1;entryX=0.5;entryY=0;entryDx=0;entryDy=0;" edge="1" parent="WIyWlLk6GJQsqaUBKTNV-1" source="5JgCZceG1wtr7dIVo2c--369" target="5JgCZceG1wtr7dIVo2c--372">
          <mxGeometry relative="1" as="geometry" />
        </mxCell>
        <mxCell id="5JgCZceG1wtr7dIVo2c--369" value="&lt;br&gt;&lt;div&gt;начало&lt;/div&gt;&lt;div&gt;&lt;br&gt;&lt;/div&gt;" style="strokeWidth=2;html=1;shape=mxgraph.flowchart.terminator;whiteSpace=wrap;" vertex="1" parent="WIyWlLk6GJQsqaUBKTNV-1">
          <mxGeometry x="2669.9999999999995" y="3209" width="145" height="39" as="geometry" />
        </mxCell>
        <mxCell id="5JgCZceG1wtr7dIVo2c--370" style="edgeStyle=orthogonalEdgeStyle;rounded=0;orthogonalLoop=1;jettySize=auto;html=1;entryX=0.5;entryY=0;entryDx=0;entryDy=0;" edge="1" parent="WIyWlLk6GJQsqaUBKTNV-1" source="5JgCZceG1wtr7dIVo2c--372" target="5JgCZceG1wtr7dIVo2c--373">
          <mxGeometry relative="1" as="geometry" />
        </mxCell>
        <mxCell id="5JgCZceG1wtr7dIVo2c--371" style="edgeStyle=orthogonalEdgeStyle;rounded=0;orthogonalLoop=1;jettySize=auto;html=1;entryX=0.5;entryY=0;entryDx=0;entryDy=0;" edge="1" parent="WIyWlLk6GJQsqaUBKTNV-1" source="5JgCZceG1wtr7dIVo2c--372" target="5JgCZceG1wtr7dIVo2c--376">
          <mxGeometry relative="1" as="geometry">
            <mxPoint x="2900" y="3324" as="targetPoint" />
          </mxGeometry>
        </mxCell>
        <mxCell id="5JgCZceG1wtr7dIVo2c--372" value="голова червячка на еде" style="rhombus;whiteSpace=wrap;html=1;strokeWidth=2;" vertex="1" parent="WIyWlLk6GJQsqaUBKTNV-1">
          <mxGeometry x="2652.4999999999995" y="3279.3999999999996" width="180" height="90" as="geometry" />
        </mxCell>
        <mxCell id="5JgCZceG1wtr7dIVo2c--373" value="А" style="ellipse;whiteSpace=wrap;html=1;" vertex="1" parent="WIyWlLk6GJQsqaUBKTNV-1">
          <mxGeometry x="2722.4999999999995" y="3432.3999999999996" width="40" height="40" as="geometry" />
        </mxCell>
        <mxCell id="5JgCZceG1wtr7dIVo2c--374" value="&lt;div&gt;нет&lt;/div&gt;&lt;div&gt;&lt;br&gt;&lt;/div&gt;" style="text;html=1;align=center;verticalAlign=middle;resizable=0;points=[];autosize=1;strokeColor=none;fillColor=none;" vertex="1" parent="WIyWlLk6GJQsqaUBKTNV-1">
          <mxGeometry x="2707.9999999999995" y="3384.3999999999996" width="40" height="40" as="geometry" />
        </mxCell>
        <mxCell id="5JgCZceG1wtr7dIVo2c--375" style="edgeStyle=orthogonalEdgeStyle;rounded=0;orthogonalLoop=1;jettySize=auto;html=1;entryX=0.5;entryY=0;entryDx=0;entryDy=0;" edge="1" parent="WIyWlLk6GJQsqaUBKTNV-1" source="5JgCZceG1wtr7dIVo2c--376" target="5JgCZceG1wtr7dIVo2c--379">
          <mxGeometry relative="1" as="geometry" />
        </mxCell>
        <mxCell id="5JgCZceG1wtr7dIVo2c--376" value="генерируем&amp;nbsp; новое положения для еды" style="whiteSpace=wrap;html=1;strokeWidth=2;" vertex="1" parent="WIyWlLk6GJQsqaUBKTNV-1">
          <mxGeometry x="2840" y="3384.4000000000005" width="120" height="60" as="geometry" />
        </mxCell>
        <mxCell id="5JgCZceG1wtr7dIVo2c--377" value="да" style="text;html=1;align=center;verticalAlign=middle;resizable=0;points=[];autosize=1;strokeColor=none;fillColor=none;" vertex="1" parent="WIyWlLk6GJQsqaUBKTNV-1">
          <mxGeometry x="2833.5" y="3298" width="40" height="30" as="geometry" />
        </mxCell>
        <mxCell id="5JgCZceG1wtr7dIVo2c--378" style="edgeStyle=orthogonalEdgeStyle;rounded=0;orthogonalLoop=1;jettySize=auto;html=1;entryX=0.5;entryY=0;entryDx=0;entryDy=0;" edge="1" parent="WIyWlLk6GJQsqaUBKTNV-1" source="5JgCZceG1wtr7dIVo2c--379" target="5JgCZceG1wtr7dIVo2c--381">
          <mxGeometry relative="1" as="geometry" />
        </mxCell>
        <mxCell id="5JgCZceG1wtr7dIVo2c--379" value="добавляем сегмент к червячку" style="whiteSpace=wrap;html=1;strokeWidth=2;" vertex="1" parent="WIyWlLk6GJQsqaUBKTNV-1">
          <mxGeometry x="2840" y="3494" width="120" height="60" as="geometry" />
        </mxCell>
        <mxCell id="5JgCZceG1wtr7dIVo2c--380" style="edgeStyle=orthogonalEdgeStyle;rounded=0;orthogonalLoop=1;jettySize=auto;html=1;entryX=0.5;entryY=0;entryDx=0;entryDy=0;" edge="1" parent="WIyWlLk6GJQsqaUBKTNV-1" source="5JgCZceG1wtr7dIVo2c--381" target="5JgCZceG1wtr7dIVo2c--384">
          <mxGeometry relative="1" as="geometry" />
        </mxCell>
        <mxCell id="5JgCZceG1wtr7dIVo2c--381" value="увеличиваем счетчик очков на 1" style="whiteSpace=wrap;html=1;strokeWidth=2;" vertex="1" parent="WIyWlLk6GJQsqaUBKTNV-1">
          <mxGeometry x="2840" y="3604" width="120" height="60" as="geometry" />
        </mxCell>
        <mxCell id="5JgCZceG1wtr7dIVo2c--382" style="edgeStyle=orthogonalEdgeStyle;rounded=0;orthogonalLoop=1;jettySize=auto;html=1;" edge="1" parent="WIyWlLk6GJQsqaUBKTNV-1" source="5JgCZceG1wtr7dIVo2c--384" target="5JgCZceG1wtr7dIVo2c--385">
          <mxGeometry relative="1" as="geometry" />
        </mxCell>
        <mxCell id="5JgCZceG1wtr7dIVo2c--383" style="edgeStyle=orthogonalEdgeStyle;rounded=0;orthogonalLoop=1;jettySize=auto;html=1;entryX=0.5;entryY=0;entryDx=0;entryDy=0;entryPerimeter=0;" edge="1" parent="WIyWlLk6GJQsqaUBKTNV-1" source="5JgCZceG1wtr7dIVo2c--384" target="5JgCZceG1wtr7dIVo2c--387">
          <mxGeometry relative="1" as="geometry">
            <mxPoint x="3070" y="3754.4000000000005" as="targetPoint" />
          </mxGeometry>
        </mxCell>
        <mxCell id="5JgCZceG1wtr7dIVo2c--384" value="toogle является true" style="rhombus;whiteSpace=wrap;html=1;strokeWidth=2;" vertex="1" parent="WIyWlLk6GJQsqaUBKTNV-1">
          <mxGeometry x="2810" y="3709.4000000000005" width="180" height="90" as="geometry" />
        </mxCell>
        <mxCell id="5JgCZceG1wtr7dIVo2c--385" value="А" style="ellipse;whiteSpace=wrap;html=1;" vertex="1" parent="WIyWlLk6GJQsqaUBKTNV-1">
          <mxGeometry x="2880" y="3864.4000000000005" width="40" height="40" as="geometry" />
        </mxCell>
        <mxCell id="5JgCZceG1wtr7dIVo2c--386" value="&lt;div&gt;нет&lt;/div&gt;&lt;div&gt;&lt;br&gt;&lt;/div&gt;" style="text;html=1;align=center;verticalAlign=middle;resizable=0;points=[];autosize=1;strokeColor=none;fillColor=none;" vertex="1" parent="WIyWlLk6GJQsqaUBKTNV-1">
          <mxGeometry x="2867" y="3824.4000000000005" width="40" height="40" as="geometry" />
        </mxCell>
        <mxCell id="5JgCZceG1wtr7dIVo2c--387" value="конец" style="strokeWidth=2;html=1;shape=mxgraph.flowchart.terminator;whiteSpace=wrap;" vertex="1" parent="WIyWlLk6GJQsqaUBKTNV-1">
          <mxGeometry x="3000" y="3864.4000000000005" width="145" height="39" as="geometry" />
        </mxCell>
        <mxCell id="5JgCZceG1wtr7dIVo2c--388" value="да" style="text;html=1;align=center;verticalAlign=middle;resizable=0;points=[];autosize=1;strokeColor=none;fillColor=none;" vertex="1" parent="WIyWlLk6GJQsqaUBKTNV-1">
          <mxGeometry x="2993" y="3731.4000000000005" width="40" height="30" as="geometry" />
        </mxCell>
        <mxCell id="5JgCZceG1wtr7dIVo2c--389" value="А" style="ellipse;whiteSpace=wrap;html=1;" vertex="1" parent="WIyWlLk6GJQsqaUBKTNV-1">
          <mxGeometry x="3074.25" y="3209" width="41.5" height="40" as="geometry" />
        </mxCell>
        <mxCell id="5JgCZceG1wtr7dIVo2c--390" value="конец" style="strokeWidth=2;html=1;shape=mxgraph.flowchart.terminator;whiteSpace=wrap;" vertex="1" parent="WIyWlLk6GJQsqaUBKTNV-1">
          <mxGeometry x="3022.5" y="3298" width="145" height="39" as="geometry" />
        </mxCell>
      </root>
    </mxGraphModel>
  </diagram>
</mxfile>
